<svg width="47" height="49" viewBox="0 0 47 49" fill="none" xmlns="http://www.w3.org/2000/svg">
<ellipse cx="26.2558" cy="20.344" rx="18.7538" ry="17.951" fill="white"/>
<path fill-rule="evenodd" clip-rule="evenodd" d="M35.4449 1.26245C27.5779 -0.420818 19.4196 -0.420818 11.5526 1.26245L10.7049 1.44196C8.49138 1.91427 6.45825 2.96535 4.83185 4.47817C3.20545 5.99099 2.04961 7.9062 1.49301 10.0106C-0.497671 17.5325 -0.497671 25.4108 1.49301 32.9328C2.02388 34.9396 3.10028 36.7763 4.61283 38.256C6.12539 39.7358 8.02021 40.8059 10.1048 41.3577L11.2675 48.002C11.3046 48.213 11.4002 48.4106 11.5441 48.5742C11.6881 48.7379 11.8753 48.8616 12.0862 48.9324C12.2971 49.0033 12.524 49.0188 12.7433 48.9772C12.9626 48.9356 13.1662 48.8386 13.3329 48.6961L20.1618 42.8489C25.2881 43.1451 30.4324 42.7527 35.4449 41.6833L36.2951 41.5037C38.5086 41.0314 40.5418 39.9804 42.1681 38.4675C43.7945 36.9547 44.9504 35.0395 45.507 32.9351C47.4977 25.4132 47.4977 17.5349 45.507 10.013C44.9502 7.90829 43.794 5.99287 42.1671 4.48002C40.5402 2.96717 38.5066 1.91627 36.2926 1.44436L35.4449 1.26245ZM13.663 9.81669C13.1983 9.75155 12.7242 9.84111 12.3202 10.0704H12.2852C11.3475 10.597 10.5023 11.2599 9.7822 12.0402C9.18208 12.7032 8.85701 13.3734 8.772 14.0196C8.72198 14.4026 8.75699 14.7903 8.87452 15.1565L8.91953 15.1804C9.59466 17.0785 10.4748 18.9047 11.5501 20.6232C12.9371 23.0366 14.6431 25.2689 16.6261 27.265L16.6861 27.3464L16.7811 27.4134L16.8386 27.4781L16.9087 27.5355C19.0015 29.4391 21.3391 31.0798 23.8651 32.4182C26.7532 33.9236 28.506 34.6345 29.5587 34.9313V34.9457C29.8663 35.0366 30.1464 35.0773 30.4289 35.0773C31.3259 35.0157 32.1751 34.6666 32.8394 34.0864C33.6521 33.3971 34.3397 32.5857 34.8748 31.6834V31.6666C35.3774 30.7571 35.2074 29.9002 34.4822 29.3186C33.0269 28.099 31.4517 27.0169 29.7788 26.0874C28.6586 25.5058 27.5208 25.8577 27.0607 26.4465L26.078 27.6336C25.5729 28.2224 24.6577 28.141 24.6577 28.141L24.6327 28.1554C17.8038 26.4872 15.981 19.8692 15.981 19.8692C15.981 19.8692 15.8959 18.9693 16.5286 18.5097L17.7588 17.5619C18.3489 17.1024 18.759 16.0158 18.1264 14.9435C17.1576 13.3433 16.0297 11.8364 14.7582 10.4438C14.4801 10.1168 14.0906 9.89392 13.658 9.8143M25.2003 6.93975C24.8688 6.93975 24.5508 7.06583 24.3163 7.29026C24.0818 7.51469 23.9501 7.81909 23.9501 8.13648C23.9501 8.45387 24.0818 8.75826 24.3163 8.9827C24.5508 9.20713 24.8688 9.33321 25.2003 9.33321C28.3635 9.33321 30.989 10.3217 33.067 12.2173C34.1347 13.2537 34.9673 14.4815 35.5124 15.8267C36.0601 17.1742 36.3101 18.6127 36.2451 20.0535C36.2382 20.2107 36.2637 20.3676 36.3202 20.5153C36.3766 20.663 36.4629 20.7987 36.5742 20.9145C36.7988 21.1483 37.1113 21.2872 37.4428 21.3005C37.7744 21.3139 38.098 21.2006 38.3423 20.9855C38.5866 20.7705 38.7317 20.4714 38.7456 20.1541C38.8202 18.3818 38.5129 16.6139 37.8429 14.9602C37.1698 13.2982 36.1448 11.7874 34.8323 10.5228L34.8073 10.4988C32.2293 8.14127 28.9661 6.93975 25.2003 6.93975ZM25.1153 10.8746C24.7837 10.8746 24.4657 11.0007 24.2313 11.2251C23.9968 11.4495 23.8651 11.7539 23.8651 12.0713C23.8651 12.3887 23.9968 12.6931 24.2313 12.9175C24.4657 13.142 24.7837 13.2681 25.1153 13.2681H25.1578C27.4383 13.4236 29.0986 14.1513 30.2614 15.3456C31.4541 16.5758 32.0717 18.1052 32.0242 19.9961C32.0166 20.3135 32.141 20.6208 32.3701 20.8504C32.5992 21.08 32.9142 21.213 33.2457 21.2203C33.5773 21.2276 33.8984 21.1086 34.1382 20.8893C34.3781 20.67 34.5171 20.3685 34.5247 20.0511C34.5848 17.5691 33.7496 15.427 32.0943 13.718V13.7132C30.4014 11.9756 28.0784 11.0565 25.2829 10.877L25.2404 10.8722L25.1153 10.8746ZM25.0678 14.8837C24.9005 14.8695 24.7319 14.8878 24.5721 14.9374C24.4124 14.987 24.2647 15.0669 24.1379 15.1724C24.0111 15.2778 23.9078 15.4067 23.8342 15.5512C23.7606 15.6957 23.7181 15.8529 23.7094 16.0135C23.7006 16.174 23.7258 16.3346 23.7833 16.4857C23.8409 16.6367 23.9296 16.7751 24.0443 16.8926C24.1589 17.0101 24.2971 17.1043 24.4506 17.1695C24.6042 17.2348 24.7698 17.2697 24.9378 17.2723C25.983 17.325 26.6506 17.6266 27.0707 18.0311C27.4933 18.4379 27.8084 19.0914 27.8659 20.1134C27.869 20.274 27.9059 20.4323 27.9743 20.579C28.0427 20.7257 28.1413 20.8577 28.2641 20.9671C28.3869 21.0765 28.5315 21.1612 28.6893 21.216C28.847 21.2708 29.0147 21.2947 29.1822 21.2862C29.3498 21.2776 29.5139 21.2369 29.6647 21.1664C29.8154 21.0959 29.9499 20.9971 30.0599 20.8758C30.1699 20.7545 30.2533 20.6133 30.3051 20.4605C30.3569 20.3077 30.3761 20.1465 30.3614 19.9865C30.2814 18.5504 29.8113 17.2819 28.8486 16.3484C27.8809 15.415 26.5631 14.9602 25.0678 14.8837Z" fill="#7360F2"/>
</svg>
