<svg width="48" height="49" viewBox="0 0 48 49" fill="none" xmlns="http://www.w3.org/2000/svg">
<g clip-path="url(#clip0_36_246)">
<path d="M1.02442 24.2067C1.0233 28.3236 2.0853 32.3435 4.10467 35.8867L0.831299 47.9928L13.0623 44.7443C16.4452 46.6097 20.2356 47.5872 24.0873 47.5875H24.0974C36.8127 47.5875 47.1633 37.107 47.1687 24.2251C47.1712 17.9829 44.7734 12.1132 40.417 7.6971C36.0614 3.2814 30.2686 0.848308 24.0965 0.845459C11.3797 0.845459 1.02986 11.3254 1.02461 24.2067" fill="url(#paint0_linear_36_246)"/>
<path d="M0.200625 24.1992C0.199313 28.4643 1.29937 32.6279 3.39075 36.298L0 48.838L12.6696 45.4731C16.1604 47.401 20.0908 48.4175 24.0902 48.419H24.1005C37.272 48.419 47.9944 37.5615 48 24.2185C48.0023 17.7521 45.5182 11.6713 41.0062 7.09702C36.4937 2.52331 30.4937 0.00265891 24.1005 0C10.9267 0 0.205875 10.856 0.200625 24.1992ZM7.74581 35.6659L7.27275 34.9053C5.28412 31.7024 4.2345 28.0012 4.236 24.2007C4.24012 13.1102 13.1509 4.08713 24.108 4.08713C29.4143 4.08941 34.401 6.18464 38.1517 9.98612C41.9023 13.788 43.9661 18.8418 43.9648 24.217C43.9599 35.3075 35.049 44.3317 24.1005 44.3317H24.0926C20.5277 44.3298 17.0314 43.3601 13.9823 41.5275L13.2566 41.0916L5.73825 43.0883L7.74581 35.6659Z" fill="url(#paint1_linear_36_246)"/>
<path d="M18.1272 14.0824C17.6798 13.0753 17.209 13.0549 16.7835 13.0373C16.4352 13.0221 16.0369 13.0232 15.639 13.0232C15.2408 13.0232 14.5937 13.175 14.0468 13.7799C13.4993 14.3853 11.9565 15.8485 11.9565 18.8244C11.9565 21.8003 14.0965 24.6765 14.3948 25.0804C14.6935 25.4836 18.526 31.786 24.5957 34.2106C29.6402 36.2255 30.6668 35.8247 31.7616 35.7237C32.8566 35.623 35.2949 34.2609 35.7923 32.8485C36.2901 31.4362 36.2901 30.2256 36.1409 29.9727C35.9916 29.7206 35.5934 29.5693 34.9962 29.2669C34.399 28.9645 31.4629 27.501 30.9156 27.2991C30.3681 27.0974 29.97 26.9968 29.5718 27.6024C29.1735 28.2071 28.03 29.5693 27.6814 29.9727C27.3332 30.377 26.9847 30.4273 26.3877 30.1248C25.7901 29.8213 23.8669 29.1833 21.5852 27.1229C19.81 25.5195 18.6115 23.5396 18.2631 22.9339C17.9147 22.3292 18.2258 22.0014 18.5252 21.7C18.7935 21.429 19.1226 20.9937 19.4215 20.6406C19.7192 20.2874 19.8186 20.0353 20.0177 19.6319C20.217 19.2282 20.1173 18.8749 19.9682 18.5724C19.8186 18.2698 18.6582 15.2784 18.1272 14.0824Z" fill="white"/>
</g>
<defs>
<linearGradient id="paint0_linear_36_246" x1="2317.7" y1="4715.58" x2="2317.7" y2="0.845459" gradientUnits="userSpaceOnUse">
<stop stop-color="#1FAF38"/>
<stop offset="1" stop-color="#60D669"/>
</linearGradient>
<linearGradient id="paint1_linear_36_246" x1="2400" y1="4883.8" x2="2400" y2="0" gradientUnits="userSpaceOnUse">
<stop stop-color="#F9F9F9"/>
<stop offset="1" stop-color="white"/>
</linearGradient>
<clipPath id="clip0_36_246">
<rect width="48" height="49" fill="white"/>
</clipPath>
</defs>
</svg>
